<?xml version="1.0" encoding="iso-8859-1"?>
<!-- Generator: Adobe Illustrator 17.0.1, SVG Export Plug-In . SVG Version: 6.00 Build 0)  -->
<!DOCTYPE svg PUBLIC "-//W3C//DTD SVG 1.1//EN" "http://www.w3.org/Graphics/SVG/1.1/DTD/svg11.dtd">
<svg version="1.1" xmlns="http://www.w3.org/2000/svg" xmlns:xlink="http://www.w3.org/1999/xlink" x="0px" y="0px" width="70px"
	 height="70px" viewBox="0 0 70 70" style="enable-background:new 0 0 70 70;" xml:space="preserve">
<g id="Vimeo">
	<rect style="fill:#1AB7EA;" width="70" height="70"/>
	<path style="fill:#FFFFFF;" d="M54.044,28.864c-0.171,3.729-2.775,8.835-7.813,15.316c-5.209,6.768-9.617,10.154-13.221,10.154
		c-2.233,0-4.123-2.06-5.667-6.184c-1.031-3.779-2.061-7.559-3.092-11.338c-1.147-4.121-2.376-6.184-3.691-6.184
		c-0.287,0-1.289,0.603-3.007,1.804L15.75,30.11c1.891-1.661,3.756-3.321,5.591-4.985c2.522-2.178,4.415-3.324,5.677-3.44
		c2.982-0.286,4.816,1.751,5.505,6.113c0.744,4.706,1.26,7.634,1.548,8.779c0.861,3.905,1.806,5.856,2.839,5.856
		c0.802,0,2.007-1.266,3.613-3.8c1.604-2.532,2.463-4.46,2.579-5.784c0.229-2.186-0.631-3.281-2.579-3.281
		c-0.918,0-1.863,0.211-2.836,0.628c1.883-6.166,5.481-9.161,10.79-8.99C52.415,21.321,54.271,23.874,54.044,28.864z"/>
</g>
</svg>
