<?xml version="1.0" encoding="iso-8859-1"?>
<!-- Generator: Adobe Illustrator 17.0.1, SVG Export Plug-In . SVG Version: 6.00 Build 0)  -->
<!DOCTYPE svg PUBLIC "-//W3C//DTD SVG 1.1//EN" "http://www.w3.org/Graphics/SVG/1.1/DTD/svg11.dtd">
<svg version="1.1" xmlns="http://www.w3.org/2000/svg" xmlns:xlink="http://www.w3.org/1999/xlink" x="0px" y="0px" width="70px"
	 height="70px" viewBox="0 0 70 70" style="enable-background:new 0 0 70 70;" xml:space="preserve">
<g id="Instagram">
	<rect style="fill:#BC2BAB;" width="70" height="70"/>
	<g>
		<path style="fill:#FFFFFF;" d="M35.375,18.812c5.553,0,6.21,0.021,8.403,0.121c2.028,0.093,3.129,0.431,3.861,0.716
			c0.971,0.377,1.663,0.828,2.391,1.556c0.728,0.728,1.178,1.42,1.556,2.391c0.285,0.733,0.624,1.834,0.716,3.861
			c0.1,2.193,0.121,2.851,0.121,8.403s-0.021,6.21-0.121,8.403c-0.093,2.028-0.431,3.129-0.716,3.861
			c-0.377,0.971-0.828,1.663-1.556,2.391c-0.728,0.728-1.42,1.178-2.391,1.556c-0.733,0.285-1.834,0.624-3.861,0.716
			c-2.192,0.1-2.85,0.121-8.403,0.121s-6.211-0.021-8.403-0.121c-2.028-0.093-3.129-0.431-3.861-0.716
			c-0.971-0.377-1.663-0.828-2.391-1.556c-0.728-0.728-1.178-1.42-1.556-2.391c-0.285-0.733-0.624-1.834-0.716-3.861
			c-0.1-2.193-0.121-2.851-0.121-8.403s0.021-6.21,0.121-8.403c0.093-2.028,0.431-3.129,0.716-3.861
			c0.377-0.971,0.828-1.663,1.556-2.391c0.728-0.728,1.42-1.178,2.391-1.556c0.733-0.285,1.834-0.624,3.861-0.716
			C29.165,18.833,29.822,18.812,35.375,18.812 M35.375,15.065c-5.648,0-6.356,0.024-8.574,0.125
			c-2.213,0.101-3.725,0.453-5.048,0.967c-1.367,0.531-2.527,1.242-3.683,2.399c-1.156,1.156-1.867,2.316-2.399,3.683
			c-0.514,1.323-0.866,2.834-0.967,5.048c-0.101,2.218-0.125,2.926-0.125,8.574c0,5.648,0.024,6.356,0.125,8.574
			c0.101,2.213,0.453,3.725,0.967,5.048c0.531,1.367,1.242,2.527,2.399,3.683c1.156,1.156,2.316,1.867,3.683,2.399
			c1.323,0.514,2.834,0.866,5.048,0.967c2.218,0.101,2.926,0.125,8.574,0.125s6.356-0.024,8.574-0.125
			c2.213-0.101,3.725-0.453,5.048-0.967c1.367-0.531,2.527-1.242,3.683-2.399c1.156-1.156,1.867-2.316,2.399-3.683
			c0.514-1.323,0.866-2.834,0.967-5.048c0.101-2.218,0.125-2.926,0.125-8.574s-0.024-6.356-0.125-8.574
			c-0.101-2.213-0.453-3.725-0.967-5.048c-0.531-1.367-1.242-2.527-2.399-3.683c-1.156-1.156-2.316-1.867-3.683-2.399
			c-1.323-0.514-2.834-0.866-5.048-0.967C41.731,15.089,41.023,15.065,35.375,15.065L35.375,15.065z"/>
		<path style="fill:#FFFFFF;" d="M35.375,25.182c-5.898,0-10.679,4.781-10.679,10.679s4.781,10.679,10.679,10.679
			s10.679-4.781,10.679-10.679S41.273,25.182,35.375,25.182z M35.375,42.792c-3.828,0-6.932-3.103-6.932-6.932
			s3.103-6.932,6.932-6.932s6.932,3.103,6.932,6.932S39.203,42.792,35.375,42.792z"/>
		<circle style="fill:#FFFFFF;" cx="46.476" cy="24.76" r="2.495"/>
	</g>
</g>
</svg>
