<svg class="site-logo" xmlns="http://www.w3.org/2000/svg" width="151" height="56.6" viewBox="0 0 151 56.4" preserveAspectRatio="xMinYMin">
<style type="text/css">
	.st0{fill:#FF773B;}
	.st1{fill:#2B3087;}
</style>
<path class="st0" d="M42.5,13.6h6.3c2.7-1.7,5.8-2.7,9.2-2.7s6.6,1,9.2,2.7h7.5V5C70,1.8,64.2,0,58,0c-5.7,0-11,1.5-15.5,4.1V13.6z"
	/>
<path class="st1" d="M101.6,15.9C94.5,9.6,87.4,10,87.4,10c-9.8,0.1-9.9,6.6-9.9,6.6c-0.2,2.8,2.3,4.2,3.5,4.9
	c1.1,0.5,14,2.8,14,2.8c19.1,2.7,14.6,17.9,14.6,17.9c-2.6,10.3-13,14.4-22.1,14.4s-15.9-3.9-15.9-3.9c2-0.8,9-7.1,9-7.1
	c4.2,1.6,7,1.4,7,1.4c4.4,0.3,10.9-2.2,10.9-6.7c0-4.6-5.5-5.8-5.5-5.8l-8-1.4c-11.4-2.4-13.9-4.9-13.9-4.9
	c-8-5.7-3.9-16.1-3.9-16.1C72.7-0.3,86.6,0.4,86.6,0.4C98.8,0.2,108,7.8,108,7.8L101.6,15.9"/>
<path class="st1" d="M29.7,0C13.3,0,0,12.6,0,28.2s13.3,28.2,29.7,28.2s29.7-12.6,29.7-28.2C59.3,12.6,46.1,0,29.7,0 M29.8,45.8
	c-9.5,0-17.2-7.8-17.2-17.4S20.3,11,29.8,11S47,18.7,47,28.3C47,38,39.3,45.8,29.8,45.8"/>
<path class="st0" d="M71.4,39.3c-3.2,3.9-8,6.4-13.4,6.4c-9.5,0-17.2-7.8-17.2-17.4c0-3.7,1.1-7.1,3-9.9c-2-2.9-4.4-4.5-4.4-4.5
	c-2.1-1.6-4.7-2.3-5.4-2.5c-3.6,4.7-5.8,10.5-5.8,16.7c0,15.6,13.3,28.2,29.7,28.2c9.4,0,17.7-4.1,23.1-10.6
	C75.3,43.7,71.7,39.6,71.4,39.3"/>
</svg>
